<svg width="32" height="34" viewBox="0 0 32 34" fill="none" xmlns="http://www.w3.org/2000/svg">
<path fill-rule="evenodd" clip-rule="evenodd" d="M4.65214 2.49957H0V0.499573H4.65214C6.12696 0.499573 7.38304 1.57154 7.61485 3.02803L8.21024 6.76882H29.7121C31.0177 6.76882 31.9732 7.99941 31.6498 9.26428L29.7489 16.6983C29.2962 18.4688 27.7011 19.7074 25.8736 19.7074H10.2695L10.6343 21.999C10.7115 22.4845 11.1302 22.8418 11.6218 22.8418H28.203V24.8418H11.6218C10.147 24.8418 8.89095 23.7699 8.65913 22.3134L5.63971 3.34239C5.56244 2.8569 5.14375 2.49957 4.65214 2.49957ZM9.95122 17.7074H25.8736C26.7873 17.7074 27.5849 17.0881 27.8112 16.2029L29.7121 8.76882H8.52855L9.95122 17.7074Z" fill="black"/>
<path fill-rule="evenodd" clip-rule="evenodd" d="M13.5695 31.3258C14.025 31.3258 14.5189 30.9213 14.5189 30.2656C14.5189 29.6099 14.025 29.2054 13.5695 29.2054C13.1141 29.2054 12.6201 29.6099 12.6201 30.2656C12.6201 30.9213 13.1141 31.3258 13.5695 31.3258ZM13.5695 33.3258C15.1984 33.3258 16.5189 31.9557 16.5189 30.2656C16.5189 28.5755 15.1984 27.2054 13.5695 27.2054C11.9406 27.2054 10.6201 28.5755 10.6201 30.2656C10.6201 31.9557 11.9406 33.3258 13.5695 33.3258Z" fill="black"/>
<path fill-rule="evenodd" clip-rule="evenodd" d="M26.5471 31.3258C27.0025 31.3258 27.4965 30.9213 27.4965 30.2656C27.4965 29.6099 27.0025 29.2054 26.5471 29.2054C26.0916 29.2054 25.5977 29.6099 25.5977 30.2656C25.5977 30.9213 26.0916 31.3258 26.5471 31.3258ZM26.5471 33.3258C28.176 33.3258 29.4965 31.9557 29.4965 30.2656C29.4965 28.5755 28.176 27.2054 26.5471 27.2054C24.9181 27.2054 23.5977 28.5755 23.5977 30.2656C23.5977 31.9557 24.9181 33.3258 26.5471 33.3258Z" fill="black"/>
</svg>
